<svg width="474" height="374" viewBox="0 0 474 374" fill="none" xmlns="http://www.w3.org/2000/svg">
<path d="M107.867 191.771C123.509 191.771 136.189 179.109 136.189 163.491C136.189 147.872 123.509 135.21 107.867 135.21C92.2249 135.21 79.5446 147.872 79.5446 163.491C79.5446 179.109 92.2249 191.771 107.867 191.771Z" fill="#FF6584"/>
<path d="M283.327 195.512C283.327 251.19 250.178 270.631 209.288 270.631C168.397 270.631 135.249 251.19 135.249 195.512C135.249 139.834 209.288 69.0023 209.288 69.0023C209.288 69.0023 283.327 139.834 283.327 195.512Z" fill="#81B29A"/>
<path d="M206.591 262.114L207.349 215.516L238.906 157.868L207.467 208.207L207.809 187.254L229.557 145.547L207.899 181.71L208.512 144.026L231.801 110.822L208.608 138.101L208.991 69.0025L206.584 160.476L206.782 156.702L183.103 120.511L206.402 163.946L204.196 206.032L204.13 204.915L176.833 166.829L204.048 208.861L203.771 214.125L203.722 214.204L203.745 214.636L198.147 321.412H205.626L206.523 266.26L233.671 224.331L206.591 262.114Z" fill="#3F3D56"/>
<path d="M354.764 248.1C354.764 303.779 321.616 323.219 280.725 323.219C239.834 323.219 206.686 303.779 206.686 248.1C206.686 192.422 280.725 121.591 280.725 121.591C280.725 121.591 354.764 192.422 354.764 248.1Z" fill="#484C68"/>
<path d="M278.028 314.702L278.786 268.105L310.343 210.457L278.905 260.795L279.246 239.843L300.995 198.135L279.336 234.298V234.298L279.949 196.614L303.239 163.41L280.046 190.689L280.429 121.59L278.021 213.064L278.219 209.291L254.54 173.1L277.84 216.534L275.633 258.62L275.567 257.503L248.27 219.418L275.485 261.45L275.209 266.713L275.159 266.792L275.182 267.224L269.585 374H277.063L277.961 318.848L305.108 276.919L278.028 314.702Z" fill="#F2F2F2"/>
<path d="M215.539 248.1C215.539 303.779 182.391 323.219 141.5 323.219C100.61 323.219 67.4612 303.779 67.4612 248.1C67.4612 192.422 141.5 121.591 141.5 121.591C141.5 121.591 215.539 192.422 215.539 248.1Z" fill="#484C68"/>
<path d="M138.803 314.702L139.561 268.105L171.119 210.457L139.68 260.795L140.021 239.843L161.77 198.135L140.112 234.298V234.298L140.724 196.614L164.014 163.41L140.821 190.689L141.204 121.59L138.797 213.064L138.994 209.291L115.316 173.1L138.615 216.534L136.408 258.62L136.343 257.503L109.046 219.418L136.26 261.45L135.984 266.713L135.935 266.792L135.957 267.224L130.36 374H137.838L138.736 318.848L165.884 276.919L138.803 314.702Z" fill="#F2F2F2"/>
<path d="M211.173 373.529C175.761 373.53 141.445 361.269 114.071 338.837C86.6977 316.405 67.9603 285.19 61.0517 250.51C54.1432 215.83 59.4909 179.83 76.1838 148.646C92.8766 117.461 119.882 93.0212 152.598 79.4896C185.314 65.958 221.716 64.1722 255.603 74.4365C289.49 84.7008 318.764 106.38 338.438 135.781C358.112 165.181 366.967 200.484 363.496 235.673C360.026 270.862 344.443 303.761 319.403 328.765C305.223 343.001 288.356 354.288 269.778 361.972C251.2 369.656 231.281 373.584 211.173 373.529ZM211.173 69.0229C127.419 69.0229 59.2801 137.062 59.2801 220.693C59.2801 304.324 127.419 372.363 211.173 372.363C294.926 372.363 363.065 304.324 363.065 220.693C363.065 137.062 294.926 69.0229 211.173 69.0229V69.0229Z" fill="#2F2E41"/>
<path d="M336.33 307.89V372.974H86.038V307.89L211.184 242.805L211.444 242.94L336.33 307.89Z" fill="#F2F2F2"/>
<path opacity="0.1" d="M336.33 307.89V372.974H211.444V242.94L336.33 307.89Z" fill="black"/>
<path d="M200.494 282.637L191.109 286.175V272.223L200.494 268.115V282.637Z" fill="#3D405B"/>
<path d="M96.7275 321.687L93.5989 322.869V314.398L96.7275 313.017V321.687Z" fill="#3D405B"/>
<path d="M107.678 318.042L104.028 319.409V310.233L107.678 308.633V318.042Z" fill="#3D405B"/>
<path d="M119.671 313.356L115.499 314.923V305.026L119.671 303.192V313.356Z" fill="#3D405B"/>
<path d="M134.271 307.629L129.057 309.594V299.298L134.271 297.014V307.629Z" fill="#3D405B"/>
<path d="M152 300.86L145.743 303.222V292.009L152 289.268V300.86Z" fill="#3D405B"/>
<path d="M173.379 293.05L166.079 295.796V283.157L173.379 279.962V293.05Z" fill="#3D405B"/>
<path d="M96.7275 338.869L93.5989 339.655V331.06L96.7275 330.072V338.869Z" fill="#3D405B"/>
<path d="M107.678 336.266L104.028 337.179V327.936L107.678 326.787V336.266Z" fill="#3D405B"/>
<path d="M119.671 333.142L115.499 334.189V324.291L119.671 322.977V333.142Z" fill="#3D405B"/>
<path d="M134.271 329.498L129.057 330.805V320.125L134.271 318.487V329.498Z" fill="#3D405B"/>
<path d="M152 324.811L145.743 326.388V314.918L152 312.953V324.811Z" fill="#3D405B"/>
<path d="M173.379 319.605L165.558 321.569V308.671L173.379 306.213V319.605Z" fill="#3D405B"/>
<path d="M200.494 312.836L191.109 315.192V300.86L200.494 297.92V312.836Z" fill="#3D405B"/>
<path d="M200.494 342.514L191.109 343.707V329.498L200.494 327.725V342.514Z" fill="#3D405B"/>
<path d="M96.7275 355.531L93.5989 355.933V347.721L96.7275 347.126V355.531Z" fill="#3D405B"/>
<path d="M107.678 354.49L104.028 354.949V346.159L107.678 345.475V354.49Z" fill="#3D405B"/>
<path d="M119.671 352.928L115.499 353.455V343.556L119.671 342.762V352.928Z" fill="#3D405B"/>
<path d="M134.271 350.845L129.057 351.511V340.952L134.271 339.959V350.845Z" fill="#3D405B"/>
<path d="M152 348.762L145.743 349.555V337.828L152 336.639V348.762Z" fill="#3D405B"/>
<path d="M173.379 346.159L165.558 347.146V334.184L173.379 332.701V346.159Z" fill="#3D405B"/>
<path d="M326.161 321.687L329.29 322.869V314.398L326.161 313.017V321.687Z" fill="#3D405B"/>
<path d="M315.211 318.042L318.861 319.409V310.233L315.211 308.633V318.042Z" fill="#3D405B"/>
<path d="M303.218 313.356L307.39 314.923V305.026L303.218 303.192V313.356Z" fill="#3D405B"/>
<path d="M288.618 307.629L293.832 309.594V299.298L288.618 297.014V307.629Z" fill="#3D405B"/>
<path d="M270.889 300.86L277.146 303.222V292.009L270.889 289.268V300.86Z" fill="#3D405B"/>
<path d="M249.509 293.05L256.81 295.796V283.157L249.509 279.962V293.05Z" fill="#3D405B"/>
<path d="M326.161 338.869L329.29 339.655V331.06L326.161 330.072V338.869Z" fill="#3D405B"/>
<path d="M315.211 336.266L318.861 337.179V327.936L315.211 326.787V336.266Z" fill="#3D405B"/>
<path d="M303.218 333.142L307.39 334.189V324.291L303.218 322.977V333.142Z" fill="#3D405B"/>
<path d="M288.618 329.498L293.832 330.805V320.125L288.618 318.487V329.498Z" fill="#3D405B"/>
<path d="M270.889 324.811L277.146 326.388V314.918L270.889 312.953V324.811Z" fill="#3D405B"/>
<path d="M249.509 319.605L257.331 321.569V308.671L249.509 306.213V319.605Z" fill="#3D405B"/>
<path d="M222.395 312.836L231.781 315.192V300.86L222.395 297.92V312.836Z" fill="#3D405B"/>
<path d="M222.395 342.514L231.781 343.707V329.498L222.395 327.725V342.514Z" fill="#3D405B"/>
<path d="M326.161 355.531L329.29 355.933V347.721L326.161 347.126V355.531Z" fill="#3D405B"/>
<path d="M315.211 354.49L318.861 354.949V346.159L315.211 345.475V354.49Z" fill="#3D405B"/>
<path d="M303.218 352.928L307.39 353.455V343.556L303.218 342.762V352.928Z" fill="#3D405B"/>
<path d="M288.618 350.845L293.832 351.511V340.952L288.618 339.959V350.845Z" fill="#3D405B"/>
<path d="M270.889 348.762L277.146 349.555V337.828L270.889 336.639V348.762Z" fill="#3D405B"/>
<path d="M249.509 346.159L257.331 347.146V334.184L249.509 332.701V346.159Z" fill="#3D405B"/>
<path d="M231.259 286.281L221.874 282.747V268.058L231.259 272.167V286.281Z" fill="#3D405B"/>
<path d="M319.391 361.385H318.626V373.608H319.391V361.385Z" fill="#2F2E41"/>
<path d="M328.405 364.712H327.863V373.373H328.405V364.712Z" fill="#2F2E41"/>
<path d="M336.415 365.769H335.938V373.382H336.415V365.769Z" fill="#2F2E41"/>
<path d="M296.961 357.51V373.234L286.793 373.219L276.625 373.203V355.531L286.793 356.521L296.961 357.51Z" fill="#3D405B"/>
<path d="M125.928 373.234L146.264 373.202V355.531L125.928 357.508V373.234Z" fill="#3D405B"/>
<path d="M455.643 372.714H0V373.755H455.643V372.714Z" fill="#2F2E41"/>
<path opacity="0.1" d="M296.961 357.51V373.234L286.793 373.219V356.521L296.961 357.51Z" fill="black"/>
<path d="M210.141 358.916H209.098V373.495H210.141V358.916Z" fill="#2F2E41"/>
<path d="M215.638 353.725C215.638 358.834 212.905 363.097 209.619 363.244C206.425 363.386 203.901 359.563 203.901 354.709C203.901 349.854 210.141 336.527 210.141 336.527C210.141 336.527 215.638 348.617 215.638 353.725Z" fill="#81B29A"/>
<path d="M87.4521 363.588H86.8301V372.284H87.4521V363.588Z" fill="#2F2E41"/>
<path d="M90.7308 360.492C90.7308 363.539 89.1007 366.082 87.1411 366.17C85.236 366.255 83.7299 363.974 83.7299 361.079C83.7299 358.183 87.4521 350.234 87.4521 350.234C87.4521 350.234 90.7308 357.445 90.7308 360.492Z" fill="#81B29A"/>
<path d="M323.216 361.867C323.216 364.765 321.387 367.028 319.008 366.917C316.482 366.799 314.317 364.078 314.317 360.847C314.317 357.616 319.008 349.544 319.008 349.544C319.008 349.544 323.216 358.969 323.216 361.867Z" fill="#81B29A"/>
<path d="M331.115 365.053C331.115 367.107 329.819 368.711 328.134 368.632C326.344 368.548 324.809 366.62 324.809 364.331C324.809 362.041 328.134 356.321 328.134 356.321C328.134 356.321 331.115 363 331.115 365.053Z" fill="#81B29A"/>
<path d="M338.797 366.07C338.797 367.875 337.658 369.284 336.177 369.215C334.604 369.141 333.255 367.447 333.255 365.435C333.255 363.422 336.177 358.395 336.177 358.395C336.177 358.395 338.797 364.265 338.797 366.07Z" fill="#81B29A"/>
<path d="M342.5 83.8791C342.5 83.8791 337.425 99.0831 340.245 102.462C343.064 105.84 323.326 92.3258 323.326 92.3258L334.041 79.9373L342.5 83.8791Z" fill="#A0616A"/>
<path d="M330.926 83.8544C344.91 83.8544 356.246 72.5349 356.246 58.5716C356.246 44.6084 344.91 33.2889 330.926 33.2889C316.942 33.2889 305.606 44.6084 305.606 58.5716C305.606 72.5349 316.942 83.8544 330.926 83.8544Z" fill="#2F2E41"/>
<path d="M429.347 255.065L416.377 265.202L409.045 253.376L422.016 244.366L429.347 255.065Z" fill="#A0616A"/>
<path d="M411.019 331.367L414.403 347.697L423.99 360.649C423.99 360.649 449.931 368.533 432.449 372.474C414.967 376.416 411.019 369.659 411.019 369.659L398.612 358.96V373.601H390.717L389.025 352.765C389.025 352.765 387.897 346.571 392.973 339.814L394.101 329.678L411.019 331.367Z" fill="#2F2E41"/>
<path d="M345.602 129.21L350.113 155.113C350.113 155.113 398.048 150.045 401.432 159.618C404.816 169.191 405.943 172.006 405.943 172.006L396.357 175.385L391.845 166.938C390.471 166.452 389.012 166.252 387.557 166.349C386.103 166.445 384.683 166.838 383.386 167.501C378.874 169.754 339.399 175.385 336.579 168.065C333.759 160.744 325.864 133.715 325.864 133.715L337.707 124.142L345.602 129.21Z" fill="#A0616A"/>
<path opacity="0.1" d="M345.602 129.21L350.113 155.113C350.113 155.113 398.048 150.045 401.432 159.618C404.816 169.191 405.943 172.006 405.943 172.006L396.357 175.385L391.845 166.938C390.471 166.452 389.012 166.252 387.557 166.349C386.103 166.445 384.683 166.838 383.386 167.501C378.874 169.754 339.399 175.385 336.579 168.065C333.759 160.744 325.864 133.715 325.864 133.715L337.707 124.142L345.602 129.21Z" fill="black"/>
<path d="M372.107 204.104L376.055 217.618L386.206 269.425C386.206 269.425 387.333 307.716 389.025 312.221C390.717 316.726 390.717 317.289 389.025 318.979C387.333 320.668 383.95 326.299 389.025 329.678C394.101 333.057 412.147 336.998 412.711 333.057C413.275 329.115 413.275 322.921 412.711 320.105C412.147 317.289 414.403 273.367 414.403 273.367L407.635 206.356L384.514 195.657L372.107 204.104Z" fill="#2F2E41"/>
<path opacity="0.1" d="M372.107 204.104L376.055 217.618L386.206 269.425C386.206 269.425 387.333 307.716 389.025 312.221C390.717 316.726 390.717 317.289 389.025 318.979C387.333 320.668 383.95 326.299 389.025 329.678C394.101 333.057 412.147 336.998 412.711 333.057C413.275 329.115 413.275 322.921 412.711 320.105C412.147 317.289 414.403 273.367 414.403 273.367L407.635 206.356L384.514 195.657L372.107 204.104Z" fill="black"/>
<path d="M396.356 151.171L408.763 174.822C408.763 174.822 479.82 206.356 473.616 219.308C467.413 232.259 433.013 256.473 433.013 256.473C433.013 256.473 431.321 266.046 426.245 263.231C421.17 260.415 408.763 245.774 409.891 244.085C411.019 242.395 414.966 238.454 416.658 239.017C418.35 239.58 438.088 224.376 438.088 224.376L404.252 215.929C404.252 215.929 363.648 214.803 361.392 195.657C359.136 176.511 361.392 173.132 361.392 173.132L358.573 166.938L381.694 152.86L396.356 151.171Z" fill="#2F2E41"/>
<path d="M413.839 244.648L401.996 255.347C401.996 255.347 391.845 250.842 385.642 252.531C379.438 254.221 368.723 255.347 368.723 255.347L370.415 264.92L384.804 262.269L373.235 278.435C373.235 278.435 373.235 303.775 380.566 303.775C387.897 303.775 385.642 288.571 385.642 288.571L408.199 271.114C408.199 271.114 419.478 266.609 420.606 266.609C421.734 266.609 413.839 244.648 413.839 244.648Z" fill="#2F2E41"/>
<path d="M340.244 88.384C350.834 88.384 359.418 79.8121 359.418 69.2381C359.418 58.6642 350.834 50.0923 340.244 50.0923C329.655 50.0923 321.07 58.6642 321.07 69.2381C321.07 79.8121 329.655 88.384 340.244 88.384Z" fill="#A0616A"/>
<path d="M321.352 84.1606C321.352 84.1606 330.376 81.9082 333.195 84.1606C336.015 86.4131 336.579 91.4811 340.526 92.0442C344.474 92.6073 347.858 92.6073 348.422 93.1704C348.986 93.7335 361.956 109.501 361.956 109.501C361.956 109.501 369.851 114.006 371.543 120.2C373.235 126.394 390.153 147.229 392.409 149.482C394.665 151.734 377.747 162.996 372.107 166.938C366.468 170.88 350.113 172.569 345.038 163.56C339.963 154.55 312.329 95.986 321.352 84.1606Z" fill="#E07A5F"/>
<path d="M342.782 120.763L347.294 146.666C347.294 146.666 395.229 141.598 398.612 151.171C401.996 160.744 403.124 163.56 403.124 163.56L393.537 166.938L389.025 158.492C387.651 158.006 386.192 157.805 384.738 157.902C383.283 157.999 381.864 158.391 380.566 159.055C376.055 161.307 336.579 166.938 333.759 159.618C330.939 152.297 323.044 125.268 323.044 125.268L334.887 115.695L342.782 120.763Z" fill="#A0616A"/>
<path d="M332.005 86.5298C332.005 86.5298 345.602 115.132 344.474 123.015C343.346 130.899 339.399 125.268 339.399 125.268C339.399 125.268 334.323 117.384 332.067 121.889C329.812 126.394 326.992 132.588 324.736 132.025C322.48 131.462 310.074 89.7918 316.841 85.85C323.608 81.9082 332.005 86.5298 332.005 86.5298Z" fill="#E07A5F"/>
<path d="M303.496 50.5655C317.48 50.5655 328.816 39.246 328.816 25.2827C328.816 11.3195 317.48 0 303.496 0C289.512 0 278.176 11.3195 278.176 25.2827C278.176 39.246 289.512 50.5655 303.496 50.5655Z" fill="#2F2E41"/>
<path d="M281.656 46.2184C284.933 48.5836 288.73 50.1306 292.729 50.7302C296.728 51.3297 300.812 50.9643 304.64 49.6645C308.469 48.3647 311.929 46.1684 314.733 43.2592C317.537 40.35 319.603 36.8126 320.757 32.9429C320.32 36.4107 319.168 39.7505 317.373 42.7513C315.579 45.7522 313.181 48.3489 310.33 50.3776C307.48 52.4062 304.24 53.8228 300.813 54.5378C297.387 55.2528 293.849 55.2507 290.424 54.5316C286.999 53.8126 283.76 52.3922 280.912 50.3601C278.064 48.3281 275.669 45.7285 273.878 42.7256C272.087 39.7226 270.939 36.3815 270.506 32.9131C270.074 29.4448 270.366 25.9245 271.365 22.5746C270.797 27.0752 271.454 31.6452 273.264 35.8053C275.075 39.9654 277.974 43.5622 281.656 46.2184V46.2184Z" fill="#2F2E41"/>
<path d="M325.717 81.3261C335.972 81.3261 344.285 73.0251 344.285 62.7854C344.285 52.5457 335.972 44.2448 325.717 44.2448C315.463 44.2448 307.15 52.5457 307.15 62.7854C307.15 73.0251 315.463 81.3261 325.717 81.3261Z" fill="#2F2E41"/>
<path d="M339.788 68.6847C348.877 68.6847 356.246 62.9307 356.246 55.8327C356.246 48.7347 348.877 42.9806 339.788 42.9806C330.698 42.9806 323.33 48.7347 323.33 55.8327C323.33 62.9307 330.698 68.6847 339.788 68.6847Z" fill="#2F2E41"/>
<path d="M340.526 77.6848C342.551 77.6848 344.192 74.7855 344.192 71.209C344.192 67.6326 342.551 64.7332 340.526 64.7332C338.502 64.7332 336.861 67.6326 336.861 71.209C336.861 74.7855 338.502 77.6848 340.526 77.6848Z" fill="#A0616A"/>
<path d="M390.844 166.692C390.844 166.692 400.827 160.973 402.68 162.407C404.534 163.841 405.357 168.329 405.357 168.329L393.819 172.851L390.435 166.657L390.844 166.692Z" fill="#2F2E41"/>
</svg>
