<svg width="117" height="27" viewBox="0 0 117 27" fill="none" xmlns="http://www.w3.org/2000/svg">
<path d="M0.285156 26V0.40625H8.16016C10.4102 0.40625 12.4199 0.916016 14.1895 1.93555C15.9707 2.94336 17.3594 4.38477 18.3555 6.25977C19.3516 8.12305 19.8496 10.2441 19.8496 12.623V13.8008C19.8496 16.1797 19.3574 18.2949 18.373 20.1465C17.4004 21.998 16.0234 23.4336 14.2422 24.4531C12.4609 25.4727 10.4512 25.9883 8.21289 26H0.285156ZM5.55859 4.67773V21.7637H8.10742C10.1699 21.7637 11.7461 21.0898 12.8359 19.7422C13.9258 18.3945 14.4824 16.4668 14.5059 13.959V12.6055C14.5059 10.0039 13.9668 8.03516 12.8887 6.69922C11.8105 5.35156 10.2344 4.67773 8.16016 4.67773H5.55859ZM32.1191 26.3516C29.3301 26.3516 27.0566 25.4961 25.2988 23.7852C23.5527 22.0742 22.6797 19.7949 22.6797 16.9473V16.4551C22.6797 14.5449 23.0488 12.8398 23.7871 11.3398C24.5254 9.82812 25.5684 8.66797 26.916 7.85938C28.2754 7.03906 29.8223 6.62891 31.5566 6.62891C34.1582 6.62891 36.2031 7.44922 37.6914 9.08984C39.1914 10.7305 39.9414 13.0566 39.9414 16.0684V18.1426H27.8301C27.9941 19.3848 28.4863 20.3809 29.3066 21.1309C30.1387 21.8809 31.1875 22.2559 32.4531 22.2559C34.4102 22.2559 35.9395 21.5469 37.041 20.1289L39.5371 22.9238C38.7754 24.002 37.7441 24.8457 36.4434 25.4551C35.1426 26.0527 33.7012 26.3516 32.1191 26.3516ZM31.5391 10.7422C30.5312 10.7422 29.7109 11.082 29.0781 11.7617C28.457 12.4414 28.0586 13.4141 27.8828 14.6797H34.9492V14.2754C34.9258 13.1504 34.6211 12.2832 34.0352 11.6738C33.4492 11.0527 32.6172 10.7422 31.5391 10.7422ZM51.5957 26.3516C48.8066 26.3516 46.5332 25.4961 44.7754 23.7852C43.0293 22.0742 42.1562 19.7949 42.1562 16.9473V16.4551C42.1562 14.5449 42.5254 12.8398 43.2637 11.3398C44.002 9.82812 45.0449 8.66797 46.3926 7.85938C47.752 7.03906 49.2988 6.62891 51.0332 6.62891C53.6348 6.62891 55.6797 7.44922 57.168 9.08984C58.668 10.7305 59.418 13.0566 59.418 16.0684V18.1426H47.3066C47.4707 19.3848 47.9629 20.3809 48.7832 21.1309C49.6152 21.8809 50.6641 22.2559 51.9297 22.2559C53.8867 22.2559 55.416 21.5469 56.5176 20.1289L59.0137 22.9238C58.252 24.002 57.2207 24.8457 55.9199 25.4551C54.6191 26.0527 53.1777 26.3516 51.5957 26.3516ZM51.0156 10.7422C50.0078 10.7422 49.1875 11.082 48.5547 11.7617C47.9336 12.4414 47.5352 13.4141 47.3594 14.6797H54.4258V14.2754C54.4023 13.1504 54.0977 12.2832 53.5117 11.6738C52.9258 11.0527 52.0938 10.7422 51.0156 10.7422ZM78.0508 14.9082H67.9258V21.7637H79.8086V26H62.6523V0.40625H79.7734V4.67773H67.9258V10.7773H78.0508V14.9082ZM92.8691 20.7441C92.8691 20.123 92.5586 19.6367 91.9375 19.2852C91.3281 18.9219 90.3438 18.5996 88.9844 18.3184C84.4609 17.3691 82.1992 15.4473 82.1992 12.5527C82.1992 10.8652 82.8965 9.45898 84.291 8.33398C85.6973 7.19727 87.5312 6.62891 89.793 6.62891C92.207 6.62891 94.1348 7.19727 95.5762 8.33398C97.0293 9.4707 97.7559 10.9473 97.7559 12.7637H92.6758C92.6758 12.0371 92.4414 11.4395 91.9727 10.9707C91.5039 10.4902 90.7715 10.25 89.7754 10.25C88.9199 10.25 88.2578 10.4434 87.7891 10.8301C87.3203 11.2168 87.0859 11.709 87.0859 12.3066C87.0859 12.8691 87.3496 13.3262 87.877 13.6777C88.416 14.0176 89.3184 14.3164 90.584 14.5742C91.8496 14.8203 92.916 15.1016 93.7832 15.418C96.4668 16.4023 97.8086 18.1074 97.8086 20.5332C97.8086 22.2676 97.0645 23.6738 95.5762 24.752C94.0879 25.8184 92.166 26.3516 89.8105 26.3516C88.2168 26.3516 86.7988 26.0703 85.5566 25.5078C84.3262 24.9336 83.3594 24.1543 82.6562 23.1699C81.9531 22.1738 81.6016 21.1016 81.6016 19.9531H86.418C86.4648 20.8555 86.7988 21.5469 87.4199 22.0273C88.041 22.5078 88.873 22.748 89.916 22.748C90.8887 22.748 91.6211 22.5664 92.1133 22.2031C92.6172 21.8281 92.8691 21.3418 92.8691 20.7441ZM111.396 20.7441C111.396 20.123 111.086 19.6367 110.465 19.2852C109.855 18.9219 108.871 18.5996 107.512 18.3184C102.988 17.3691 100.727 15.4473 100.727 12.5527C100.727 10.8652 101.424 9.45898 102.818 8.33398C104.225 7.19727 106.059 6.62891 108.32 6.62891C110.734 6.62891 112.662 7.19727 114.104 8.33398C115.557 9.4707 116.283 10.9473 116.283 12.7637H111.203C111.203 12.0371 110.969 11.4395 110.5 10.9707C110.031 10.4902 109.299 10.25 108.303 10.25C107.447 10.25 106.785 10.4434 106.316 10.8301C105.848 11.2168 105.613 11.709 105.613 12.3066C105.613 12.8691 105.877 13.3262 106.404 13.6777C106.943 14.0176 107.846 14.3164 109.111 14.5742C110.377 14.8203 111.443 15.1016 112.311 15.418C114.994 16.4023 116.336 18.1074 116.336 20.5332C116.336 22.2676 115.592 23.6738 114.104 24.752C112.615 25.8184 110.693 26.3516 108.338 26.3516C106.744 26.3516 105.326 26.0703 104.084 25.5078C102.854 24.9336 101.887 24.1543 101.184 23.1699C100.48 22.1738 100.129 21.1016 100.129 19.9531H104.945C104.992 20.8555 105.326 21.5469 105.947 22.0273C106.568 22.5078 107.4 22.748 108.443 22.748C109.416 22.748 110.148 22.5664 110.641 22.2031C111.145 21.8281 111.396 21.3418 111.396 20.7441Z" fill="#3D405B"/>
</svg>
